name ./resultDataOpenSim/trcMotMarkerGrf/sub06/grf-15-04.mot
datacolumns 19
datarows 20
range 1.06400000 1.14000000
endheader

                time	     ground_force_vx	     ground_force_vy	     ground_force_vz	     ground_force_px	     ground_force_py	     ground_force_pz	   l_ground_force_vx	   l_ground_force_vy	   l_ground_force_vz	   l_ground_force_px	   l_ground_force_py	   l_ground_force_pz	     ground_torque_x	     ground_torque_y	     ground_torque_z	   l_ground_torque_x	   l_ground_torque_y	   l_ground_torque_z	
          1.06400000	          0.00000000	          0.00000000	          0.00000000	          0.00000000	          0.00000000	          0.00000000	        119.82441036	        623.91179853	          9.92767870	          0.11088906	         -0.10000100	         -0.04571099	          0.00000000	          0.00000000	          0.00000000	          0.00000000	         -1.89886155	          0.00000000	
          1.06800000	          0.00000000	          0.00000000	          0.00000000	          0.00000000	          0.00000000	          0.00000000	        124.03073791	        633.71960524	          9.19867777	          0.11185909	         -0.10000100	         -0.04497714	          0.00000000	          0.00000000	          0.00000000	          0.00000000	         -1.94911699	          0.00000000	
          1.07200000	          0.00000000	          0.00000000	          0.00000000	          0.00000000	          0.00000000	          0.00000000	        128.34126543	        641.38785256	          8.05973710	          0.11282676	         -0.10000100	         -0.04423585	          0.00000000	          0.00000000	          0.00000000	          0.00000000	         -2.00520292	          0.00000000	
          1.07600000	          0.00000000	          0.00000000	          0.00000000	          0.00000000	          0.00000000	          0.00000000	        132.72971203	        646.65771264	          6.57740239	          0.11376039	         -0.10000100	         -0.04347769	          0.00000000	          0.00000000	          0.00000000	          0.00000000	         -2.06730092	          0.00000000	
          1.08000000	          0.00000000	          0.00000000	          0.00000000	          0.00000000	          0.00000000	          0.00000000	        137.16679703	        649.27721998	          4.83893515	          0.11464368	         -0.10000100	         -0.04270107	          0.00000000	          0.00000000	          0.00000000	          0.00000000	         -2.13450449	          0.00000000	
          1.08400000	          0.00000000	          0.00000000	          0.00000000	          0.00000000	          0.00000000	          0.00000000	        141.60404103	        648.98836775	          2.93530664	          0.11548063	         -0.10000100	         -0.04190520	          0.00000000	          0.00000000	          0.00000000	          0.00000000	         -2.20468433	          0.00000000	
          1.08800000	          0.00000000	          0.00000000	          0.00000000	          0.00000000	          0.00000000	          0.00000000	        145.95742575	        645.57580806	          0.95036730	          0.11627841	         -0.10000088	         -0.04109262	          0.00000000	          0.00000000	          0.00000000	          0.00000000	         -2.27445933	          0.00000000	
          1.09200000	          0.00000000	          0.00000000	          0.00000000	          0.00000000	          0.00000000	          0.00000000	        150.11034334	        638.90298257	         -1.03546986	          0.11702628	         -0.10000000	         -0.04028136	          0.00000000	          0.00000000	          0.00000000	          0.00000000	         -2.33951661	          0.00000000	
          1.09600000	          0.00000000	          0.00000000	          0.00000000	          0.00000000	          0.00000000	          0.00000000	        153.92710876	        628.90882273	         -2.94342450	          0.11768564	         -0.10000000	         -0.03950839	          0.00000000	          0.00000000	          0.00000000	          0.00000000	         -2.39543351	          0.00000000	
          1.10000000	          0.00000000	          0.00000000	          0.00000000	          0.00000000	          0.00000000	          0.00000000	        157.25968187	        615.57683842	         -4.71734223	          0.11824352	         -0.10000000	         -0.03880486	          0.00000000	          0.00000000	          0.00000000	          0.00000000	         -2.43883346	          0.00000000	
          1.10400000	          0.00000000	          0.00000000	          0.00000000	          0.00000000	          0.00000000	          0.00000000	        159.92794751	        598.90040483	         -6.35476905	          0.11873435	         -0.09999968	         -0.03817100	          0.00000000	          0.00000000	          0.00000000	          0.00000000	         -2.46829520	          0.00000000	
          1.10800000	          0.00000000	          0.00000000	          0.00000000	          0.00000000	          0.00000000	          0.00000000	        161.69794596	        578.87311613	         -7.89615787	          0.11923881	         -0.09999905	         -0.03757646	          0.00000000	          0.00000000	          0.00000000	          0.00000000	         -2.48437047	          0.00000000	
          1.11200000	          0.00000000	          0.00000000	          0.00000000	          0.00000000	          0.00000000	          0.00000000	        162.29648762	        555.50359378	         -9.36600572	          0.11984668	         -0.09999900	         -0.03699457	          0.00000000	          0.00000000	          0.00000000	          0.00000000	         -2.48862021	          0.00000000	
          1.11600000	          0.00000000	          0.00000000	          0.00000000	          0.00000000	          0.00000000	          0.00000000	        161.44339398	        528.82906932	        -10.73686846	          0.12061549	         -0.09999816	         -0.03641390	          0.00000000	          0.00000000	          0.00000000	          0.00000000	         -2.48225604	          0.00000000	
          1.12000000	          0.00000000	          0.00000000	          0.00000000	          0.00000000	          0.00000000	          0.00000000	        158.87733690	        498.91796270	        -11.95443791	          0.12155413	         -0.09999800	         -0.03583284	          0.00000000	          0.00000000	          0.00000000	          0.00000000	         -2.46508513	          0.00000000	
          1.12400000	          0.00000000	          0.00000000	          0.00000000	          0.00000000	          0.00000000	          0.00000000	        154.38027304	        465.90417500	        -12.97338505	          0.12269758	         -0.09999800	         -0.03523453	          0.00000000	          0.00000000	          0.00000000	          0.00000000	         -2.43510931	          0.00000000	
          1.12800000	          0.00000000	          0.00000000	          0.00000000	          0.00000000	          0.00000000	          0.00000000	        147.80642394	        430.07926171	        -13.76143986	          0.12410749	         -0.09999728	         -0.03459458	          0.00000000	          0.00000000	          0.00000000	          0.00000000	         -2.38883156	          0.00000000	
          1.13200000	          0.00000000	          0.00000000	          0.00000000	          0.00000000	          0.00000000	          0.00000000	        139.11495133	        391.98462178	        -14.29118567	          0.12583028	         -0.09999700	         -0.03391730	          0.00000000	          0.00000000	          0.00000000	          0.00000000	         -2.32214024	          0.00000000	
          1.13600000	         -1.52287061	         28.63160643	          0.31819574	          0.82797476	          0.00000000	          0.01751569	        128.40103886	        352.43402514	        -14.54477769	          0.12792835	         -0.09999636	         -0.03319879	          0.00000000	          1.40231737	          0.00000000	          0.00000000	         -2.23141384	          0.00000000	
          1.14000000	        -32.23037499	        364.16558986	          4.94221364	          0.83548057	          0.00000000	          0.01701223	        115.93010581	        312.44388540	        -14.52566164	          0.13045836	         -0.09999600	         -0.03239492	          0.00000000	          2.02004142	          0.00000000	          0.00000000	         -2.11436468	          0.00000000	
